<?xml version="1.0" ?><!DOCTYPE svg  PUBLIC '-//W3C//DTD SVG 1.1//EN'  'http://www.w3.org/Graphics/SVG/1.1/DTD/svg11.dtd'><svg xmlns="http://www.w3.org/2000/svg" xmlns:xlink="http://www.w3.org/1999/xlink" xml:space="preserve" width="512px" height="512px" style="shape-rendering:geometricPrecision; text-rendering:geometricPrecision; image-rendering:optimizeQuality; fill-rule:evenodd; clip-rule:evenodd" viewBox="0 0 512 512"><defs><style type="text/css">
   <![CDATA[
    .fil0 {fill:#666666}
    .fil2 {fill:#E6614A}
    .fil4 {fill:#E6E6E6}
    .fil6 {fill:#EFE2DD}
    .fil1 {fill:#FF6C52}
    .fil3 {fill:#FF8870}
    .fil5 {fill:white}
    .fil7 {fill:#666666;fill-rule:nonzero}
   ]]>
  </style></defs><g id="Layer_x0020_1"><g id="_280431248"><path id="_280432736" class="fil0" d="M339.449 132.401l-166.998 0c-3.30001,0 -6.00002,-2.70001 -6.00002,-6.00002l0 -53.2998c0,-8.80042 7.20002,-16.0004 16.0004,-16.0004l146.998 0.00118111c8.80042,0 16.0004,7.20002 16.0004,16.0004l0 53.2998c-0.00118111,3.29883 -2.70119,5.99884 -6.0012,5.99884zm-160.998 -12l154.998 0 0 -47.2998c0,-2.2004 -1.80001,-4.00041 -4.00041,-4.00041l-146.998 0c-2.2004,0 -4.00041,1.80001 -4.00041,4.00041l0.00118111 47.2998z"/><path id="_280431920" class="fil1" d="M481.349 454.899l-450.799 0c-3.30001,0 -6.00002,-2.70001 -6.00002,-6.00002l0 -207.298c0,-3.30001 2.70001,-6.00002 6.00002,-6.00002l61.6998 0c3.30001,0 6.00002,2.70001 6.00002,6.00002l0 25.0985 40.6005 0 0 -25.0985c0,-3.30001 2.70001,-6.00002 6.00002,-6.00002l222.099 0c3.30001,0 6.00002,2.70001 6.00002,6.00002l0 25.0985 40.5993 0 0 -25.0985c0,-3.30001 2.70001,-6.00002 6.00002,-6.00002l61.6998 0c3.30001,0 6.00002,2.70001 6.00002,6.00002l0 207.199c0.100394,3.39922 -2.59961,6.09923 -5.89962,6.09923z"/><path id="_280431872" class="fil2" d="M24.5505 257.6l0 -15.9993c0,-3.30001 2.70001,-6.00002 6.00002,-6.00002l61.6998 0c3.30001,0 6.00002,2.70001 6.00002,6.00002l0 14.83c-1.85316,0.753546 -3.87993,1.16929 -6.00002,1.16929l-67.6998 0zm114.3 -1.16929l0 -14.83c0,-3.30001 2.70001,-6.00002 6.00002,-6.00002l222.099 0c3.30001,0 6.00002,2.70001 6.00002,6.00002l0 14.8713c-1.82717,0.727561 -3.81852,1.12796 -5.90081,1.12796l-222.198 0c-2.12009,0 -4.14686,-0.415749 -6.00002,-1.16929zm274.698 -0.0413387l0 -14.7886c0,-3.30001 2.70001,-6.00002 6.00002,-6.00002l61.6998 0c3.30001,0 6.00002,2.70001 6.00002,6.00002l0 15.9993 -67.5994 0c-2.15906,0 -4.22009,-0.431104 -6.10041,-1.21063z"/><path id="_280431584" class="fil3" d="M505.949 247.601l-86.2999 0c-3.30001,0 -6.00002,-2.70001 -6.00002,-6.00002l0 -25.0997 -40.6005 0 0 25.0997c0,3.30001 -2.70001,6.00002 -6.00002,6.00002l-222.198 0c-3.30001,0 -6.00002,-2.70001 -6.00002,-6.00002l0 -25.0997 -40.6005 0 0 25.0997c0,3.30001 -2.70001,6.00002 -6.00002,6.00002l-86.2999 0c-3.30001,0 -6.00002,-2.70001 -6.00002,-6.00002l0 -83.7995c0,-20.5997 16.8001,-37.3997 37.3997,-37.3997l437.299 -0.00118111c20.5997,0 37.3997,16.8001 37.3997,37.3997l0 83.7995c-0.0992129,3.30119 -2.79922,6.0012 -6.09923,6.0012z"/><path id="_280431944" class="fil4" d="M346.449 363.4l-173.299 0c-3.30001,0 -6.00002,-2.70001 -6.00002,-6.00002l0 -15.7004c0,-5.20041 4.30041,-9.49964 9.49964,-9.49964l16.3004 0c0.499608,-1.39961 1.09961,-2.8004 1.69961,-4.20001l-11.5996 -11.5996c-1.80001,-1.80001 -2.8004,-4.20001 -2.8004,-6.70041 0,-2.5004 1.0004,-4.90041 2.8004,-6.70041l22.2001 -22.2001c3.70041,-3.70041 9.70042,-3.70041 13.3996,0l11.5996 11.5996c1.39961,-0.600002 2.8004,-1.2 4.20001,-1.69961l0 -16.3004c0,-5.20041 4.30041,-9.49964 9.49964,-9.49964l31.3997 0c5.20041,0 9.49964,4.30041 9.49964,9.49964l0 16.3004c1.39961,0.499608 2.8004,1.09961 4.20001,1.69961l11.5996 -11.5996c1.80001,-1.80001 4.20001,-2.8004 6.70041,-2.8004 0,0 0,0 0,0 2.5004,0 4.90041,1.0004 6.70041,2.8004l22.2001 22.2001c3.70041,3.70041 3.70041,9.70042 0,13.3996l-11.4 11.6008c0.600002,1.39961 1.2,2.8004 1.69961,4.20001l16.4008 0c5.20041,0 9.49964,4.30041 9.49964,9.49964l0 15.7004c0,3.30001 -2.70001,6.00002 -6.00002,6.00002z"/><path id="_280431656" class="fil5" d="M288.549 363.4l-57.599 0c-3.30001,0 -6.00002,-2.70001 -6.00002,-6.00002 0,-19.2001 15.6,-34.8001 34.7989,-34.8001 19.2001,0 34.8001,15.6 34.8001,34.8001 0,3.30001 -2.70001,6.00002 -6.00002,6.00002z"/><path id="_280431080" class="fil6" d="M410.349 425.7c-13.2,0 -25.8001,-5.89962 -34.3005,-15.7997l-232.599 0c-8.50042,9.90003 -21.1005,15.7997 -34.3005,15.7997 -24.9001,0 -45.1005,-20.2005 -45.1005,-45.1005 0,-24.9001 20.2005,-45.1005 45.1005,-45.1005 13.2,0 25.8001,5.89962 34.3005,15.7997l232.599 0.00118111c8.50042,-9.90003 21.1005,-15.7997 34.3005,-15.7997 14.2004,0 27.7005,6.79963 36.1997,18.1997 1.39961,1.80001 1.6004,4.20001 0.499608,6.30002 -1.0004,1.99961 -3.1004,3.30001 -5.40002,3.30001l-24.0993 0 0 34.5001 24.1005 0c2.29961,0 4.30041,1.3004 5.40002,3.30001 1.0004,1.99961 0.799609,4.50001 -0.499608,6.30002 -8.40121,11.5004 -22.0005,18.3001 -36.2009,18.3001z"/><path id="_280431296" class="fil5" d="M109.25 402.5c-12,0 -21.7997,-9.79964 -21.7997,-21.7997 0,-12 9.79964,-21.7997 21.7997,-21.7997 12,0 21.7997,9.79964 21.7997,21.7997 0.00118111,12 -9.79964,21.7997 -21.7997,21.7997z"/><path id="_280431536" class="fil7" d="M417.65 279.7l-48.6001 0c-2.51812,0 -4.74332,-1.02048 -6.35553,-2.63269 -1.6441,-1.6441 -2.6445,-3.92363 -2.6445,-6.36734l0 -58.0986c0,-2.51812 1.02048,-4.74332 2.63269,-6.35553 1.6441,-1.6441 3.92363,-2.6445 6.36734,-2.6445l48.6001 0c2.51812,0 4.74332,1.02048 6.35553,2.63269 1.6441,1.6441 2.6445,3.92363 2.6445,6.36734l0 58.0986c0,2.50276 -1.0252,4.72088 -2.63269,6.33191l-0.0236221 0.0236221c-1.64646,1.64292 -3.91891,2.6445 -6.34372,2.6445z"/><path id="_280431128" class="fil7" d="M142.854 279.7l-48.6001 0c-2.51812,0 -4.74332,-1.02048 -6.35553,-2.63269 -1.6441,-1.6441 -2.6445,-3.92363 -2.6445,-6.36734l0 -58.0986c0,-2.51812 1.02048,-4.74332 2.63269,-6.35553 1.6441,-1.6441 3.92363,-2.6445 6.36734,-2.6445l48.6001 0c2.51812,0 4.74332,1.02048 6.35553,2.63269 1.6441,1.6441 2.6445,3.92363 2.6445,6.36734l0 58.0986c0,2.50276 -1.0252,4.72088 -2.63269,6.33191l-0.0236221 0.0236221c-1.64646,1.64292 -3.91891,2.6445 -6.34372,2.6445z"/></g></g></svg>