<svg enable-background="new 0 0 60 60" viewBox="0 0 60 60" xmlns="http://www.w3.org/2000/svg"><g><g><g><g><g><g><path d="m52.83 53.56c-.19.28-.5.44-.83.44h-44c-.33 0-.64-.16-.83-.44-.18-.27-.22-.62-.1-.93l5.5-14c.15-.38.52-.63.93-.63h9.2l.99 2h-9.51l-4.71 12h41.06l-4.71-12h-9.45l1-2h9.13c.41 0 .78.25.93.63l5.5 14c.12.31.08.66-.1.93z" fill="#ffffff"></path></g></g></g></g></g><g><g><g><g><path d="m30 6c-7.17 0-13 5.83-13 13 0 2.35.63 4.65 1.79 6.58l10.31 20.86c.17.34.54.54.9.56.38 0 .72-.21.89-.55l10.52-20.96c1.06-1.88 1.59-3.95 1.59-6.15 0-7.23-5.95-13.34-13-13.34zm0 18c-2.76 0-5-2.24-5-5s2.24-5 5-5c2.71 0 5 2.37 5 5.17 0 2.71-2.2 4.83-5 4.83z" fill="#dc6e15"></path></g></g></g></g></g></svg>