<svg id="logo" fill="white" viewBox="0 0 1000 1000" xmlns="http://www.w3.org/2000/svg"><path d="m390.86 403.32h-122.44a68.67 68.67 0 0 1 -68.6-68.59v-33.79a68.67 68.67 0 0 1 68.6-68.6h122.44a16 16 0 0 1 16 16v139a16 16 0 0 1 -16 15.98zm-122.44-139a36.64 36.64 0 0 0 -36.6 36.6v33.79a36.64 36.64 0 0 0 36.6 36.59h106.44v-107z"></path><path d="m499.89 391.43a15.67 15.67 0 0 1 -3.46-.38l-48.83-10.8a16 16 0 0 1 6.91-31.25l29.38 6.49v-75.33l-29.38 6.49a15.93 15.93 0 0 1 -9.09-.65l-60.2-22.69a16 16 0 0 1 11.28-29.94l55.75 21 44.18-9.77a16 16 0 0 1 19.46 15.62v115.2a16 16 0 0 1 -16 16z"></path><path d="m390.87 403.33a16 16 0 0 1 -5.65-31l60.19-22.69a16 16 0 1 1 11.29 29.96l-60.19 22.69a16 16 0 0 1 -5.64 1.04z"></path><path d="m733.8 361.58a16 16 0 0 1 -4.9-31.24l38.85-12.51-35.45-11.42-32.46 4.16a17.15 17.15 0 0 1 -2 .13h-197.95a16 16 0 0 1 0-32h196.9l35-4.48a16 16 0 0 1 6.93.64l50.37 16.22a16 16 0 0 1 11.1 15.23v23a16 16 0 0 1 -11.1 15.23l-50.38 16.26a15.84 15.84 0 0 1 -4.91.78z"></path><path d="m733.83 361.58a17.94 17.94 0 0 1 -2.06-.13l-35-4.49h-196.88a16 16 0 0 1 0-32h197.91a17.46 17.46 0 0 1 2 .13l36 4.61a16 16 0 0 1 -2 31.88z"></path><path d="m778.57 853.64h-557.14c-30.73 0-58.1-10.8-75.1-29.62-12.1-13.41-17.81-30.09-16.08-47l20.22-197.54c3.74-36.5 45.6-65.1 95.31-65.1h508.44c49.71 0 91.57 28.6 95.31 65.1l20.22 197.54c1.73 16.88-4 33.56-16.08 47-17 18.82-44.37 29.62-75.1 29.62zm-532.79-307.23c-35.74 0-61.67 18.8-63.47 36.36l-20.23 197.54c-1 9.94 3.79 17.6 8 22.26 10.78 11.94 30 19.07 51.35 19.07h557.14c21.37 0 40.57-7.13 51.35-19.07 4.21-4.66 9-12.32 8-22.26l-20.23-197.54c-1.8-17.56-27.73-36.36-63.47-36.36z"></path><path d="m754.22 487.44h-508.44c-49.71 0-91.57-28.59-95.31-65.1l-20.22-197.53c-1.73-16.89 4-33.57 16.08-47 17-18.83 44.37-29.62 75.1-29.62h557.14c30.73 0 58.1 10.79 75.1 29.62 12.1 13.4 17.81 30.08 16.08 47l-20.22 197.53c-3.74 36.51-45.6 65.1-95.31 65.1zm-532.79-307.22c-21.37 0-40.57 7.12-51.35 19.06-4.21 4.67-9 12.32-8 22.27l20.23 197.53c1.8 17.56 27.73 36.36 63.47 36.36h508.44c35.74 0 61.67-18.8 63.47-36.36l20.23-197.53c1-10-3.79-17.6-8-22.27-10.78-11.94-30-19.06-51.35-19.06z"></path><path d="m282.94 546.41a16 16 0 0 1 -16-16v-59a16 16 0 0 1 32 0v59a16 16 0 0 1 -16 16z"></path><path d="m408.77 546.41a16 16 0 0 1 -16-16v-59a16 16 0 0 1 32 0v59a16 16 0 0 1 -16 16z"></path><path d="m591.23 546.41a16 16 0 0 1 -16-16v-59a16 16 0 0 1 32 0v59a16 16 0 0 1 -16 16z"></path><path d="m717.06 546.41a16 16 0 0 1 -16-16v-59a16 16 0 0 1 32 0v59a16 16 0 0 1 -16 16z"></path><path d="m642.42 180.22a16 16 0 0 1 -13.65-7.63l-16.64-27.08c-10.34-16.82-35.07-29.51-57.51-29.51h-109.24c-22.45 0-47.17 12.68-57.5 29.5l-16.65 27.09a16 16 0 1 1 -27.23-16.75l16.64-27.09c16.16-26.35 51.02-44.75 84.74-44.75h109.24c33.71 0 68.57 18.4 84.77 44.75l16.61 27.09a16 16 0 0 1 -13.62 24.38z"></path><path d="m554.62 916h-109.24c-33.51 0-69.34-21.15-85.19-50.29l-11.11-20.43a16 16 0 0 1 28.11-15.28l11.11 20.43c10.41 19.13 34.95 33.57 57.08 33.57h109.24c22.12 0 46.66-14.44 57.09-33.58l11.1-20.42a16 16 0 0 1 28.12 15.29l-11.12 20.43c-15.81 29.13-51.69 50.28-85.19 50.28z"></path><path d="m278.83 763a79 79 0 1 1 79-79 79.09 79.09 0 0 1 -79 79zm0-126a47 47 0 1 0 47 47 47.06 47.06 0 0 0 -47-47z"></path><path d="m712.8 778.23a94.21 94.21 0 1 1 85.2-134.38 16 16 0 0 1 -28.94 13.66 62.2 62.2 0 1 0 .5 52 16 16 0 0 1 29.2 13.09 94.36 94.36 0 0 1 -85.96 55.63z"></path><path d="m784.18 732h-78a16 16 0 0 1 -16-16v-65.32a16 16 0 0 1 16-16h77.38a16 16 0 0 1 0 32h-61.39v33.32h62a16 16 0 1 1 0 32z"></path><path d="m642.72 734.76h-311.32a16 16 0 1 1 0-32h311.32a16 16 0 0 1 0 32z"></path><path d="m642.72 665.29h-311.32a16 16 0 0 1 0-32h311.32a16 16 0 0 1 0 32z"></path></svg>