<svg viewBox="0 0 501.96 501.96" xmlns="http://www.w3.org/2000/svg"><g><g><path fill="#dc6e15" d="m378.67 301.29c-15.21-9.91-31-19.3-46.27-28.38l-1.88-1.11c-16.45-9.79-32-7.19-46.14 7.72-2.26 2.37-8.35 4.67-10.68 4.43-25.56-10.07-44.31-28.92-55.73-56a12.63 12.63 0 0 1 .8-5.46c30.84-22.27 13.3-50.18 7.5-59.41q-3.12-5-6.21-9.91c-5.79-9.26-11.77-18.84-17.88-28.18-6.63-10.15-14.5-15.76-23.37-16.67-8.66-.88-17.17 2.81-25.3 11-5 5-9.76 10.35-14.35 15.48-4.44 5-8.63 9.65-13.08 14.17-20.55 20.8-24.45 45.19-11.93 74.54 16.57 38.85 38.88 72.42 66.32 99.78 27.73 27.6 61.45 49.71 100.23 65.52h.05l.24.1a66.57 66.57 0 0 0 25 4.87 67.29 67.29 0 0 0 42.69-15.33c11.4-9.37 23.54-19.47 35.11-29.88 10-9 11.54-17.9 11.08-23.8-.49-6.21-3.69-15.34-16.2-23.48zm-8.26 32.43c-11.27 10.15-23.21 20.08-34.41 29.28a47 47 0 0 1 -47.47 7.39h-.1l-.14-.05c-72.14-29.51-124.53-81.55-155.72-154.68-9.35-21.93-7-37.67 7.76-52.65 4.8-4.87 9.36-10 13.77-14.9 4.61-5.16 9-10 13.61-14.7 3.56-3.58 6.79-5.42 9.09-5.18 2.46.25 5.62 3.06 8.66 7.72 6 9.16 11.92 18.65 17.66 27.83q3.1 5 6.23 9.95c10.24 16.3 9.54 24.31-2.89 33-7.94 5.55-10.48 20.45-7 28.77 13.43 32 36.68 55.28 67.24 67.22 10.52 4.12 25.84-2.69 32.2-9.38 8.7-9.15 14.24-8.57 21.42-4.3l1.88 1.11c15.09 9 30.71 18.26 45.58 27.95 4.3 2.8 7 5.9 7.17 8.3.19 2.6-2.76 5.72-4.54 7.32z"></path><path fill="#ffffff" d="m286.12 195.71a30.21 30.21 0 0 1 30.17 30.17 10 10 0 1 0 20 0 50.23 50.23 0 0 0 -50.17-50.17 10 10 0 0 0 0 20z"></path><path fill="#dc6e15" d="m286.12 155.55a70.41 70.41 0 0 1 70.33 70.33 10 10 0 0 0 20 0 90.43 90.43 0 0 0 -90.33-90.33 10 10 0 0 0 0 20z"></path><path fill="#ffffff" d="m286.12 95.39a10 10 0 0 0 0 20 110.61 110.61 0 0 1 110.49 110.49 10 10 0 0 0 20 0c0-71.95-58.54-130.49-130.49-130.49z"></path><path fill="#ffffff" d="m428.45 73.51a251 251 0 0 0 -354.94 354.94 251 251 0 0 0 354.94-354.94zm-177.45 408.49c-127.38 0-231-103.66-231-231s103.62-231 231-231 231 103.62 231 231-103.66 231-231 231z"></path></g></g></svg>